<svg xmlns="http://www.w3.org/2000/svg" viewBox="37 694 530.047 810.109">
  <defs>
    <style>
      .cls-1 {
        fill: #46211c;
      }

      .cls-2 {
        fill: #ced6e0;
      }

      .cls-3 {
        fill: #4abaa5;
      }

      .cls-4 {
        fill: #ac877a;
      }

      .cls-5 {
        fill: #eb9139;
      }

      .cls-6 {
        fill: #5a4146;
      }

      .cls-7 {
        fill: #c70541;
      }

      .cls-8 {
        fill: #f3705a;
      }

      .cls-9 {
        fill: #f05540;
      }

      .cls-10 {
        fill: #ffd15c;
      }

      .cls-11 {
        fill: #66c6b9;
      }

      .cls-12 {
        fill: #f3f3f3;
      }

      .cls-13 {
        fill: #96766b;
      }

      .cls-14 {
        fill: #adb3ba;
      }

      .cls-15 {
        fill: #415a6b;
      }

      .cls-16 {
        fill: #e8eae9;
      }

      .cls-17 {
        fill: #f7b64c;
      }

      .cls-18 {
        fill: #344a5e;
      }

      .cls-19 {
        fill: #2f2f2f;
      }

      .cls-20 {
        fill: #010633;
      }

      .cls-21 {
        fill: #0874f2;
      }

      .cls-22 {
        fill: #fff;
      }
    </style>
  </defs>
  <g id="Group_143" data-name="Group 143" transform="translate(-804 -405)">
    <g id="working" transform="translate(812.501 1098.999)">
      <path id="Path_56" data-name="Path 56" class="cls-1" d="M328.641,255.6a106.327,106.327,0,0,1,29.227,28.1c12.365,17.987,20.235,28.1,30.352,30.352,0,0-5.62,16.862-29.228,4.5s-31.476-23.607-33.724-34.849S328.641,255.6,328.641,255.6Z" transform="translate(15.965 13.775)"/>
      <path id="Path_57" data-name="Path 57" class="cls-2" d="M324.481,332.52l7.869,102.3-42.719-2.248-33.724-58.456,14.614-43.842Z" transform="translate(12.255 17.799)"/>
      <g id="Group_61" data-name="Group 61" transform="translate(319.873 294.111)">
        <path id="Path_58" data-name="Path 58" class="cls-3" d="M339.823,291.872l49.462,16.862s-10.117,37.1-6.745,52.835c3.372,16.862,3.372,95.553,3.372,95.553H304.974s16.862-38.221,19.11-61.829C327.457,370.563,339.823,291.872,339.823,291.872Z" transform="translate(-304.974 -278.382)"/>
        <path id="Path_59" data-name="Path 59" class="cls-3" d="M338.526,279.072h0c2.248,5.62,11.242,29.228,12.365,40.469l1.124,12.365L340.774,340.9l11.242,8.993s-26.98,50.587-32.6,69.7c-6.745,19.11,22.483,39.345,22.483,39.345s-33.725-16.862-33.725-38.221,11.242-70.822,11.242-70.822,14.614-49.462,11.242-57.332-2.248-7.869-2.248-7.869l10.116-5.618" transform="translate(-304.801 -279.072)"/>
      </g>
      <path id="Path_60" data-name="Path 60" class="cls-4" d="M300.04,392.036s-1.125-11.242,0-17.987,17.987-14.614,17.987-14.614l15.738-58.456-6.745-11.242-55.084,4.5s-2.248,51.711,2.248,64.077S300.04,392.036,300.04,392.036Z" transform="translate(13.089 15.614)"/>
      <path id="Path_61" data-name="Path 61" class="cls-5" d="M96.314,296.969s-8.993,55.084-7.869,92.181v53.959l154.008-3.372s30.352-119.16,28.1-149.512l-2.248-30.352Z" transform="translate(3.225 14.005)"/>
      <g id="Group_62" data-name="Group 62" transform="translate(62.443 33.814)">
        <path id="Path_62" data-name="Path 62" class="cls-4" d="M80.942,321.558a66.945,66.945,0,0,1-3.372,7.869c-2.248,4.5-5.62,7.869-7.869,13.49-2.248,4.5-8.993,20.235-8.993,20.235s3.372,3.373,8.993-1.124l4.5-4.5s4.5-1.124,7.869-6.745,6.745-5.62,8.993-7.869,6.745-7.869,10.117-10.117,5.62,0,7.869-1.124c0,0,2.248,1.124,3.372,5.62s6.745,17.987,16.862,8.993l-3.372-5.62a11.622,11.622,0,0,1-1.125-4.5,26.446,26.446,0,0,1-2.248-8.993c0-2.248-2.248-11.242-5.62-14.614-2.248-3.372-8.993-6.745-8.993-6.745S91.059,296.827,80.942,321.558Z" transform="translate(-60.707 -17.419)"/>
        <ellipse id="Ellipse_4" data-name="Ellipse 4" class="cls-4" cx="12.365" cy="4.497" rx="12.365" ry="4.497" transform="translate(160.425 51.324) rotate(-71.844)"/>
        <path id="Path_63" data-name="Path 63" class="cls-4" d="M166.824,61.037c0,6.745-2.248,13.49-4.5,13.49-3.372,0-5.62-5.62-5.62-12.365s2.248-13.49,4.5-13.49C164.576,48.672,166.824,54.292,166.824,61.037Z" transform="translate(-55.533 -31.191)"/>
        <path id="Path_64" data-name="Path 64" class="cls-4" d="M196.743,150.739l7.869-37.1c10.117-7.869,19.11-39.345,19.11-39.345l2.248-19.11s3.372-13.49-24.732-21.359S165.266,46.193,163.017,65.3c0,0-2.248,7.869-1.124,24.732l-17.987,30.352Z" transform="translate(-56.223 -32.085)"/>
      </g>
      <path id="Path_65" data-name="Path 65" class="cls-4" d="M185.648,118.491c-12.365-2.248-22.483-24.732-23.607-30.352a63.994,63.994,0,0,0,6.745,25.855c4.5,10.117,17.987,20.235,29.228,28.1l6.745-31.477C203.634,110.622,198.013,119.615,185.648,118.491Z" transform="translate(7.197 4.75)"/>
      <path id="Path_66" data-name="Path 66" class="cls-2" d="M209.964,113.419a33.229,33.229,0,0,0,13.49,8.993c8.993,3.372,41.594,28.1,41.594,28.1s-6.745,37.1-14.614,52.835-8.993,52.835-6.745,76.442,5.62,30.352,5.62,30.352-35.972,12.365-74.194,8.993-70.821-5.62-70.821-5.62-4.5-71.946,0-88.808,7.869-22.483,7.869-22.483,4.5-92.181-25.855-77.566c0,0,6.745-8.993,21.359-13.49S156.006,98.8,156.006,98.8l31.477,20.235h5.62C193.1,120.164,206.592,117.916,209.964,113.419Z" transform="translate(3.115 5.325)"/>
      <path id="Path_69" data-name="Path 69" class="cls-6" d="M162.156,67.033l1.125,1.125s0-5.62,3.372-8.993,6.745,1.124,7.869-5.62c1.124-5.62,0-12.365,4.5-13.49C182.392,38.93,201.5,54.668,213.868,51.3c12.365-4.5,7.869,7.869,7.869,11.242s2.248,4.5,2.248,5.62V74.9h0a59.465,59.465,0,0,1,6.745-14.614c4.5-6.745,12.365-32.6-6.745-49.462S182.392.709,174.523,5.206s-14.614,20.235-14.614,34.849C161.031,55.792,164.4,55.792,162.156,67.033Z" transform="translate(7.082 0)"/>
      <g id="Group_63" data-name="Group 63" transform="translate(66.223 94.012)">
        <path id="Path_70" data-name="Path 70" class="cls-7" d="M187.641,119.762s8.993,5.62,13.49,13.49c3.372,8.993,6.745,11.242,6.745,11.242s0-5.62-1.125-17.987-1.124-20.235-1.124-20.235l-3.372,2.248C202.254,109.644,197.758,116.389,187.641,119.762Z" transform="translate(-57.646 -88.285)"/>
        <path id="Path_71" data-name="Path 71" class="cls-7" d="M161.577,89.2s-1.124,6.745,4.5,13.49,17.987,16.862,17.987,16.862A82.84,82.84,0,0,1,171.7,126.3c-5.62,2.248-8.993,6.745-13.49,6.745,0,0-4.5-17.987-6.745-22.483s-2.248-8.993,0-11.242C153.708,98.2,158.205,89.2,161.577,89.2Z" transform="translate(-59.687 -89.205)"/>
        <path id="Path_72" data-name="Path 72" class="cls-7" d="M113.349,312.219c1.124,3.373,3.372,6.745,4.5,8.993-2.248-2.248-5.62-2.248-13.49-2.248-10.117-1.125-19.11,12.365-22.483,12.365s-4.5-15.738-4.5-15.738A25.183,25.183,0,0,1,67.26,305.474c-4.5-6.745-3.372-23.607,0-38.221s3.372-65.2,4.5-85.436,8.993-50.587,16.862-57.332c31.477-14.614,25.855,77.566,25.855,77.566s0,34.849-1.124,40.469c-1.125,6.745,0,20.235-2.248,24.732s-1.125,12.365-1.125,22.483c1.125,8.993-1.125,8.993,0,14.614A29.217,29.217,0,0,0,113.349,312.219Z" transform="translate(-64.294 -87.388)"/>
        <path id="Path_73" data-name="Path 73" class="cls-7" d="M241.314,306.435s-3.372-6.745-5.62-30.352-1.125-60.7,6.745-76.442,14.614-52.835,14.614-52.835,5.62,25.855,5.62,37.1,10.117,132.65,10.117,132.65Z" transform="translate(-55.112 -86.101)"/>
      </g>
      <path id="Path_74" data-name="Path 74" class="cls-3" d="M245.916,371.514c-19.11,2.248-14.614-66.325-4.5-71.946l28.1-4.5s0,96.677,5.621,107.918,30.352,12.365,39.345,24.732c7.869,12.365,12.365,38.221,12.365,38.221L262.778,449.08l10.117-32.6C272.9,415.356,250.412,400.743,245.916,371.514Z" transform="translate(11.005 15.902)"/>
      <path id="Path_75" data-name="Path 75" class="cls-8" d="M444.848,422l32.6,51.711H45.774l4.5-48.339Z" transform="translate(0.931 22.742)"/>
      <rect id="Rectangle_10" data-name="Rectangle 10" class="cls-9" width="431.674" height="13.49" transform="translate(46.705 496.458)"/>
      <path id="Path_76" data-name="Path 76" class="cls-10" d="M156.088,426.831s-19.11,4.5-32.6,2.248-11.242,0-19.11-1.125-17.987-5.62-17.987-5.62l-10.117-1.125s1.124,6.745-3.372,7.869S63.908,397.6,63.908,397.6l11.242-2.248c5.62-1.124,12.365,1.125,12.365,1.125s1.124-2.248,5.62-1.125,13.49,7.869,22.483,10.117,21.359-2.248,21.359-2.248S170.7,403.224,156.088,426.831Z" transform="translate(1.908 21.289)"/>
      <path id="Path_78" data-name="Path 78" class="cls-11" d="M247.182,299.339a117.06,117.06,0,0,0-14.614,24.732c-5.62,13.49-8.993,13.49-13.49,23.607-5.62,10.117-6.745,14.614-12.365,21.359S192.1,379.154,188.726,385.9s-14.614,11.242-19.11,14.614-43.842,10.117-43.842,10.117,13.49-2.248,20.235,8.993,2.248,19.11-3.372,21.359a77.733,77.733,0,0,0,16.862-2.248c7.869-2.248,19.11-3.372,33.724-10.117s35.972-22.483,44.966-33.724a99.551,99.551,0,0,0,13.49-22.483s-11.242-21.359-10.117-39.345A112.572,112.572,0,0,1,247.182,299.339Z" transform="translate(5.242 16.132)"/>
      <path id="Path_79" data-name="Path 79" class="cls-12" d="M278.416,314.287l-22.483,34.849a1.556,1.556,0,0,0,0,2.248l4.5,4.5a2.107,2.107,0,0,0,3.372,0h0s11.242,25.855,24.732,32.6S305.4,398.6,305.4,398.6s-5.62-13.49-11.242-19.11c-5.62-4.5-13.49-14.614-13.49-24.732-1.125-10.117,4.5-28.1,4.5-34.849C285.161,312.039,278.416,314.287,278.416,314.287Z" transform="translate(12.23 16.921)"/>
      <path id="SVGCleanerId_0" class="cls-10" d="M258.746,232.176s-5.62,0-8.993,7.869-5.62,25.855-4.5,29.228,4.5,6.745,4.5,10.117a54.192,54.192,0,0,0,5.62,24.732c6.745,11.242,6.745,15.738,7.869,20.235s14.614,7.869,21.359,0l8.993,55.084,32.6-65.2,3.373-16.862c-1.124-3.373-2.248-6.745-3.373-7.869,0,0,6.745-44.966-2.248-52.835S258.746,232.176,258.746,232.176Z" transform="translate(11.665 12.473)"/>
      <g id="Group_64" data-name="Group 64" transform="translate(256.629 243.931)">
        <path id="SVGCleanerId_0_1_" class="cls-4" d="M258.746,232.176s-5.62,0-8.993,7.869-5.62,25.855-4.5,29.228,4.5,6.745,4.5,10.117a54.192,54.192,0,0,0,5.62,24.732c6.745,11.242,6.745,15.738,7.869,20.235s14.614,7.869,21.359,0l8.993,55.084,32.6-65.2,3.373-16.862c-1.124-3.373-2.248-6.745-3.373-7.869,0,0,6.745-44.966-2.248-52.835S258.746,232.176,258.746,232.176Z" transform="translate(-244.964 -231.458)"/>
      </g>
      <path id="Path_80" data-name="Path 80" class="cls-13" d="M311.917,289.739c-2.248,8.993-10.117,38.221-31.477,55.084,1.124-8.993,3.373-20.235,3.373-24.732C283.813,321.215,304.048,309.974,311.917,289.739Z" transform="translate(13.577 15.614)"/>
      <path id="Path_82" data-name="Path 82" class="cls-1" d="M248.453,247.7s3.372-10.117,8.993-10.117,11.242,2.248,20.235,2.248c10.117-1.125,13.49,6.745,11.242,11.242s-2.248,15.738,4.5,19.11,6.745,11.242,6.745,11.242h3.372s-1.125-11.242,10.117-13.49c10.117-3.372,13.49,24.732,13.49,24.732s12.365-6.745,11.242-43.842-49.462-38.221-64.077-30.352C260.818,225.218,246.2,233.087,248.453,247.7Z" transform="translate(11.841 11.562)"/>
      <ellipse id="Ellipse_5" data-name="Ellipse 5" class="cls-4" cx="12.365" cy="6.745" rx="12.365" ry="6.745" transform="translate(317.91 298.484) rotate(-80.131)"/>
      <path id="Path_83" data-name="Path 83" class="cls-14" d="M256.769,450.166l17.987-10.117L170.21,420.939,52.174,429.932l82.063,24.732C134.237,455.787,197.189,468.153,256.769,450.166Z" transform="translate(1.276 22.685)"/>
      <path id="Path_84" data-name="Path 84" class="cls-15" d="M175.779,464.129,146.551,319.114c0-2.248-2.248-4.5-5.62-4.5L34.137,307.872c-3.372,0-1.125,2.248-1.125,6.745L57.744,439.4Z" transform="translate(0.204 16.591)"/>
      <path id="Path_85" data-name="Path 85" class="cls-2" d="M149.241,459.364s13.49-4.5,15.738-4.5,104.546-16.862,104.546-16.862,2.248,5.62-2.248,8.993c-4.5,2.248-102.3,21.359-102.3,21.359s-5.62-1.124-8.993-4.5-5.621-4.5-6.745-4.5" transform="translate(6.507 23.604)"/>
      <path id="Path_86" data-name="Path 86" class="cls-16" d="M52.174,429.472,170.21,454.2c-4.5,0-4.5,13.49,0,13.49L60.043,442.962c-4.5-1.125-7.869-4.5-7.869-8.993v-4.5Z" transform="translate(1.276 23.145)"/>
      <path id="Path_87" data-name="Path 87" class="cls-14" d="M171.485,461.88,142.258,320.237c0-2.248-2.248-4.5-5.62-4.5l-102.3-7.869c-3.372,0-6.745,3.372-5.62,6.745L53.451,436.024Z" transform="translate(0 16.591)"/>
      <path id="Path_88" data-name="Path 88" class="cls-1" d="M322.227,289.847c4.5,10.117,4.5,11.242,2.248,22.483-1.125,10.117-4.5,20.235-5.621,30.352s1.125,21.359,8.993,28.1c-2.248-5.62-1.124-12.365,0-17.987s4.5-11.242,6.745-16.862c0,6.745-1.125,13.49,0,20.235s2.248,13.49,6.745,19.11a31.638,31.638,0,0,0,23.607,11.242c-4.5-3.372-6.745-7.869-7.869-13.49s0-11.242,1.125-16.862c2.248-14.614,4.5-29.228,3.373-43.842-2.248-14.614-7.869-29.227-19.11-38.221-4.5-4.5-10.117-6.745-14.614-11.242s-7.869-11.242-5.62-16.862" transform="translate(15.633 13.257)"/>
      <path id="Path_89" data-name="Path 89" class="cls-4" d="M348.3,444.431s-2.248,3.372-7.87,4.5-17.987,1.124-24.732,3.372-19.11,10.117-28.1,8.993c0,0-10.117,4.5-16.862,4.5s-7.869,0-8.993-1.125c0,0-10.117,5.62-17.987,2.248,0,0-7.869,2.248-11.242-1.124,0,0-2.248-1.125-1.124-4.5l5.62-5.62a5.648,5.648,0,0,1-1.125-5.62l5.62-2.248s4.5-2.248,6.745-2.248,6.745-3.373,8.993-4.5,29.228-6.745,35.972-8.993,26.98-8.993,39.345-8.993h12.365Z" transform="translate(10.917 22.8)"/>
      <g id="Group_65" data-name="Group 65" transform="translate(244.556 463.858)">
        <path id="Path_90" data-name="Path 90" class="cls-13" d="M245.3,464.7a8.5,8.5,0,0,1,1.124-4.5h0c1.124-1.125,3.372-1.125,4.5-2.248,1.124,0,1.124-1.125,2.248-1.125s1.125-1.125,2.248-1.125,1.125-1.124,2.248-1.124,1.124-1.124,2.248-1.124l3.373-3.372c1.125,0,1.125-1.124,2.248-1.124l2.248-1.124c1.125-1.125,3.373-1.125,4.5-1.125l3.372-1.125c1.124-1.125,3.372-1.125,4.5-2.248a8.521,8.521,0,0,1-4.5,2.248c-1.124,1.125-3.372,1.125-4.5,2.248s-3.373,1.125-4.5,2.248h-2.248c-1.125,0-1.125,1.124-2.248,1.124l-3.373,3.372-2.248,2.248c-1.125,0-1.125,1.124-2.248,1.124-1.125,1.124-3.372,1.124-4.5,2.248-1.124,0-3.372,1.125-4.5,1.125h0c0,1.124,0,1.124-1.125,2.248A1.106,1.106,0,0,1,245.3,464.7Z" transform="translate(-232.933 -439.967)"/>
        <path id="Path_91" data-name="Path 91" class="cls-13" d="M234.631,463.631h0v-1.125a3.479,3.479,0,0,1,1.125-2.248c0-1.125,1.124-1.125,1.124-2.248,1.125-1.124,1.125-1.124,2.248-1.124a117201.114,117201.114,0,0,0,2.249-2.249,24.561,24.561,0,0,0,5.62-3.372l1.125-1.125,1.124-1.125c1.125-1.125,2.248-1.125,3.372-2.248,2.248-1.125,3.372-2.248,5.62-2.248a47.348,47.348,0,0,0,5.62-2.248,47.133,47.133,0,0,1-5.62,2.248,8.586,8.586,0,0,1-5.62,2.248c-1.125,0-2.248,1.124-3.372,2.248l-1.124,1.125L247,451.265a24.56,24.56,0,0,0-5.62,3.372,117201.114,117201.114,0,0,1-2.249,2.249c-1.124,0-1.124,1.124-2.248,1.124s-1.124,1.124-2.248,1.124a1.1,1.1,0,0,1-1.124,1.125Z" transform="translate(-233.508 -440.024)"/>
        <path id="Path_92" data-name="Path 92" class="cls-17" d="M238.841,453.629h0c1.125-1.125,1.125-2.248,2.248-3.372s2.248-2.248,3.372-2.248c1.125-1.124,2.248-1.124,4.5-2.248,1.125-1.124,3.372-1.124,4.5-2.248a4.129,4.129,0,0,1,3.372-1.125,3.922,3.922,0,0,0,2.248-1.125,1.1,1.1,0,0,0,1.125-1.125l-1.125,1.125c-1.125,0-1.125,1.125-2.248,1.125a54.793,54.793,0,0,1-7.869,3.372c-1.125,1.124-2.248,1.124-4.5,2.248-1.125,1.125-2.248,1.125-3.372,2.248,0,1.123-1.124,2.248-2.248,3.372Z" transform="translate(-233.22 -440.139)"/>
        <path id="Path_93" data-name="Path 93" class="cls-13" d="M262.307,463.286v-2.248l1.124-1.125,1.124-1.125a4.129,4.129,0,0,1,3.372-1.125h0l4.5-2.248c1.124-1.124,2.248-1.124,4.5-2.248,1.125,0,1.125-1.124,2.248-1.124s1.125,0,2.248-1.124a8.527,8.527,0,0,0,4.5-2.248c-1.124,0-1.124,1.125-2.248,1.125s-1.124,1.125-2.248,1.125-1.124,1.125-2.248,1.125-1.125,1.124-2.248,1.124c-1.124,1.125-2.248,1.125-4.5,2.248l-4.5,2.248h0c-1.124,0-2.248,1.125-3.372,1.125h-1.124l-1.124,1.125C262.307,462.162,262.307,462.162,262.307,463.286Z" transform="translate(-231.956 -439.679)"/>
      </g>
      <path id="Path_94" data-name="Path 94" class="cls-11" d="M433.332,423.717c-1.124,8.993-8.993,22.483-13.49,23.607-2.248,0-17.987,2.248-34.849,4.5-12.365,1.125-25.855,3.372-34.849,3.372a57.357,57.357,0,0,1-10.117,1.125v-1.125c0-4.5,0-19.11-17.987-29.228a139.2,139.2,0,0,1,23.607-6.745c13.49-2.248,38.221-7.869,38.221-7.869V394.489c0-6.745-2.248-30.352-3.372-37.1h0v-2.248h0c-1.125-17.987,7.869-48.339,7.869-48.339s15.738,0,16.862,12.365,1.124,16.862,3.372,24.732c2.248,6.745,3.372,8.993,3.372,12.365s5.62,7.869,5.62,14.614c1.125,6.745,8.993,22.483,12.365,30.352C432.207,407.979,434.455,415.848,433.332,423.717Z" transform="translate(15.819 16.534)"/>
    </g>
    <g id="businessman" transform="translate(907.97 1397)">
      <path id="Path_95" data-name="Path 95" class="cls-15" d="M84.23,449.229l-10.667,2.133a28.65,28.65,0,0,1,0-10.667C75.7,435.362,88.5,430.028,97.03,426.828s41.6-8.533,62.933-5.333c20.267,3.2,22.4,5.333,22.4,5.333v9.6l-98.133,12.8"/>
      <path id="Path_96" data-name="Path 96" class="cls-18" d="M99.163,464.162s-22.4-2.133-24.533-9.6c-3.2-7.467,2.133-13.867,4.267-16,6.4-4.267,35.2-14.933,60.8-12.8l64,5.333-17.067,44.8Z"/>
      <path id="Path_97" data-name="Path 97" class="cls-19" d="M182.363,426.829l6.4,26.667c2.133,7.467,7.467,12.8,13.867,16h0L126.9,462.029c17.067-12.8,13.867-43.733,13.867-43.733Z"/>
      <path id="Path_98" data-name="Path 98" class="cls-20" d="M289.03,343.629,201.563,306.3s-35.2-14.933-53.333-3.2-16,34.133-16,45.867c0,12.8-1.067,44.8-5.333,62.933s0,40.533,0,40.533,10.667-20.267,28.8-22.4c25.6-2.133,33.067,9.6,33.067,9.6S203.7,394.829,200.5,379.9c0,0,9.6,16,37.333,24.533s38.4,9.6,38.4,9.6Z"/>
      <path id="Path_99" data-name="Path 99" class="cls-2" d="M306.1,154.829A38.338,38.338,0,0,1,294.364,168.7c-7.467,6.4-10.667,13.867-13.867,19.2s-7.467,11.733-8.533,16-21.333,22.4-26.667,26.667-9.6,9.6-14.933,13.867-21.333,9.6-21.333,9.6-2.133,33.067,2.133,38.4,20.267,9.6,27.733,7.467,8.533-2.133,12.8-4.267,5.333-3.2,10.667-6.4S295.431,261.5,295.431,261.5s3.2-51.2,4.267-64C299.7,184.7,306.1,154.829,306.1,154.829Z"/>
      <path id="Path_100" data-name="Path 100" class="cls-4" d="M365.83,89.762l1.067,10.667s3.2,13.867,6.4,19.2l3.2,5.333-59.733,40.533s-6.4-17.067-7.467-22.4c0,0-9.6,2.133-13.867-5.333s-6.4-11.733-10.667-17.067-8.533-17.067-8.533-26.667,1.067-14.933-1.067-19.2,0-9.6,0-9.6-3.2-10.667-2.133-19.2,5.333-21.333,9.6-25.6c3.2-5.333,50.133-10.667,60.8-3.2C354.1,22.562,365.83,72.7,365.83,89.762Z"/>
      <path id="Path_101" data-name="Path 101" class="cls-6" d="M275.163,64.162c0,1.067-3.2-11.733,0-21.333s5.333-12.8,5.333-12.8a24.081,24.081,0,0,1,14.933-7.467c9.6-1.067,23.467,2.133,32,0s17.067,4.267,17.067,12.8-2.133,13.867,0,18.133,4.267,23.467,4.267,23.467l2.133,1.067s0-8.533,4.267-14.933,7.467-2.133,7.467,2.133,1.067,27.733,3.2,34.133c0,0,0-28.8,1.067-43.733s-3.2-37.333-13.867-44.8S329.563-.9,312.5.162c-20.267,1.067-39.467,16-39.467,22.4s2.133,7.467,2.133,7.467S267.7,48.162,275.163,64.162Z"/>
      <ellipse id="Ellipse_6" data-name="Ellipse 6" class="cls-4" cx="13.867" cy="6.4" rx="13.867" ry="6.4" transform="matrix(0.197, -0.98, 0.98, 0.197, 350.367, 83.863)"/>
      <path id="Path_102" data-name="Path 102" class="cls-13" d="M308.23,143.1c1.067,5.333,3.2,24.533,3.2,24.533L341.3,147.362a200.644,200.644,0,0,0,12.8-42.667C344.5,126.029,308.23,143.1,308.23,143.1Z"/>
      <path id="Path_103" data-name="Path 103" class="cls-21" d="M371.163,131.362l7.467,2.133s16,13.867,27.733,21.333S445.83,214.561,453.3,258.3s16,132.267,3.2,180.267c0,0-20.267-35.2-44.8-43.733s-68.267-13.867-68.267-13.867l-48-30.933s4.267-34.133,0-57.6-8.533-58.667-6.4-73.6,6.4-44.8,10.667-52.267c4.267-8.533,9.6-18.133,9.6-18.133l6.4,19.2Z"/>
      <path id="Path_105" data-name="Path 105" class="cls-12" d="M370.1,113.229s-2.133,6.4-7.467,8.533c-5.333,3.2-43.733,28.8-52.267,42.667,0,0,8.533,19.2,17.067,28.8,0,0,3.2-12.8,12.8-22.4,10.667-10.667,37.333-32,38.4-38.4C380.763,127.1,370.1,113.229,370.1,113.229Z"/>
      <g id="Group_66" data-name="Group 66">
        <path id="Path_107" data-name="Path 107" class="cls-2" d="M309.3,146.3l4.267,13.867L301.831,170.83s3.2-9.6,5.333-14.933A28.586,28.586,0,0,0,309.3,146.3Z"/>
        <path id="Path_108" data-name="Path 108" class="cls-2" d="M370.1,113.229s-2.133,6.4-7.467,8.533c-5.333,3.2-43.733,28.8-52.267,42.667,0,0,8.533,19.2,17.067,28.8,0,0,3.2-12.8,12.8-22.4,10.667-10.667,37.333-32,38.4-38.4C380.763,127.1,370.1,113.229,370.1,113.229Z"/>
      </g>
      <path id="Path_109" data-name="Path 109" class="cls-15" d="M177.03,310.562V319.1h6.4c4.267,0,86.4,2.133,112,3.2,4.267,0,7.467-3.2,8.533-7.467v-1.067Z"/>
      <path id="Path_110" data-name="Path 110" class="cls-18" d="M303.963,313.762l-89.6-17.066h-51.2l17.067,16Z"/>
      <path id="Path_111" data-name="Path 111" class="cls-2" d="M331.7,252.962s1.067-35.2,26.667-49.067,44.8,4.267,52.267,14.933a23.329,23.329,0,0,1,3.2,5.333c10.667,22.4,9.6,48-2.133,70.4-5.333,9.6-11.733,20.267-17.067,28.8-12.8,20.267-42.667,70.4-56.533,74.667s-55.467-6.4-73.6-17.067-52.267-25.6-52.267-25.6,0-13.867,4.267-23.467,5.333-9.6,5.333-9.6,37.333,11.733,41.6,11.733,19.2,2.133,26.667,4.267c8.533,2.133,20.267,1.067,20.267,1.067a29.531,29.531,0,0,1,4.267-7.467c3.2-4.267,2.133-6.4,2.133-9.6s1.067-8.533,1.067-12.8c1.067-4.267,5.333-32,9.6-39.467C330.63,262.562,331.7,252.962,331.7,252.962Z"/>
      <path id="Path_112" data-name="Path 112" class="cls-4" d="M242.1,294.562c-2.133,1.067-9.6,3.2-14.933-2.133,0,0-6.4,0-8.533-3.2a7.384,7.384,0,0,1-5.333,0c-3.2-1.067-7.467-2.133-11.733-4.267a3.3,3.3,0,0,0-2.133-1.067,14.268,14.268,0,0,1,1.067-5.333h0c-1.067,1.067-2.133,3.2-3.2,3.2l-1.067,1.067h-1.067l-22.4-8.533,12.8-9.6c4.267-3.2,7.467-6.4,10.667-6.4s10.667-3.2,10.667-3.2,13.867-1.067,24.533,6.4a14.759,14.759,0,0,1,2.133,7.467c0,4.267,1.067,8.533,1.067,10.667A11.029,11.029,0,0,0,235.7,283.9s4.267,0,6.4,2.133C245.3,289.229,244.23,293.5,242.1,294.562Z"/>
      <path id="Path_113" data-name="Path 113" class="cls-4" d="M226.1,292.429c5.333,5.333,12.8,3.2,14.933,2.133H238.9c-6.4,1.067-8.533-1.067-11.733-2.133-2.133-1.067-5.333-7.467-4.267-9.6a72.84,72.84,0,0,1,5.333-7.467l-2.133,2.133c-2.133,2.133-3.2,4.267-5.333,8.533-2.133,3.2-6.4-2.133-6.4-3.2,0-2.133,3.2-4.267,6.4-7.467a23.692,23.692,0,0,0-5.333,4.267c-3.2,3.2-8.533,9.6-8.533,9.6,1.067,0,3.2,1.067,4.267,1.067a7.384,7.384,0,0,0,5.333,0A86.785,86.785,0,0,0,226.1,292.429Z"/>
      <g id="Group_67" data-name="Group 67">
        <path id="Path_114" data-name="Path 114" class="cls-4" d="M201.563,283.9H197.3s-2.133,4.267-3.2,5.333-3.2,3.2-3.2,4.267-2.133,4.267-1.067,6.4,5.333,2.133,8.533,0c2.133-2.133,5.333-7.467,6.4-8.533a15.331,15.331,0,0,0,2.133-3.2l1.067-7.467Z"/>
        <path id="Path_115" data-name="Path 115" class="cls-4" d="M194.1,279.629l1.067,2.133a78.541,78.541,0,0,1-5.333,6.4,22.33,22.33,0,0,0-4.267,6.4c-1.067,1.067-4.267,7.467-8.533,6.4-4.267,0-4.267-2.133-4.267-3.2a2.089,2.089,0,0,1-2.133-2.133V293.5h0s-3.2-1.067-3.2-6.4a9.612,9.612,0,0,1,1.067-5.333c1.067-2.133,0-7.467,4.267-8.533s4.267-1.067,4.267-1.067Z"/>
      </g>
      <g id="Group_68" data-name="Group 68">
        <path id="Path_116" data-name="Path 116" class="cls-22" d="M172.763,292.429c-1.067,1.067-1.067,2.133-2.133,3.2a2.089,2.089,0,0,0,2.133,2.133h0a50.086,50.086,0,0,0,2.133-5.333S174.9,290.3,172.763,292.429Z"/>
        <path id="Path_117" data-name="Path 117" class="cls-22" d="M173.83,297.762a7.384,7.384,0,0,1,5.333,0c2.133,0,2.133-3.2,2.133-4.267s-4.267-1.067-5.333,0C174.9,293.5,173.83,295.629,173.83,297.762Z"/>
      </g>
      <g id="Group_69" data-name="Group 69">
        <path id="Path_118" data-name="Path 118" class="cls-4" d="M172.763,297.762V296.7a3.3,3.3,0,0,1,1.067-2.133c0-1.067,1.067-1.067,1.067-2.133a23.328,23.328,0,0,0,3.2-5.333c0-1.067,1.067-2.133,1.067-3.2s1.067-2.133,1.067-3.2q1.6-3.2,3.2-6.4c1.067-2.133,3.2-3.2,4.267-4.267a55.532,55.532,0,0,1,5.333-3.2l-4.267,4.267c-2.133,2.133-5.333,6.4-6.4,10.667,0,1.067-1.067,2.133-1.067,3.2s-1.067,2.133-1.067,3.2c-1.067,2.133-2.133,3.2-3.2,5.333,0,1.067-1.067,1.067-1.067,2.133A1.045,1.045,0,0,1,174.9,296.7,3.3,3.3,0,0,1,172.763,297.762Z"/>
        <path id="Path_119" data-name="Path 119" class="cls-13" d="M170.63,293.5v-3.2a8.063,8.063,0,0,1,1.067-4.267c0-1.067,1.067-3.2,1.067-4.267a52.041,52.041,0,0,1,3.2-7.467,13.228,13.228,0,0,1,2.133-3.2,13.192,13.192,0,0,0-2.133,3.2,51.991,51.991,0,0,0-3.2,7.467c0,3.2-1.067,6.4-1.067,8.533A8.258,8.258,0,0,0,170.63,293.5Z"/>
      </g>
      <path id="Path_120" data-name="Path 120" class="cls-22" d="M193.03,294.562s1.067-1.067,3.2,0,1.067,2.133,1.067,3.2-3.2,2.133-4.267,1.067C190.9,298.829,190.9,297.762,193.03,294.562Z"/>
      <g id="Group_70" data-name="Group 70">
        <path id="Path_121" data-name="Path 121" class="cls-2" d="M62.9,186.829,49.03,188.962,100.23,303.1l77.867,16L123.7,192.162Z"/>
        <path id="Path_122" data-name="Path 122" class="cls-2" d="M140.763,300.962s5.333,9.6,5.333,10.667l-30.933-6.4V303.1l-2.133-7.467s3.2-3.2,5.333,0A46.207,46.207,0,0,1,117.3,290.3c0-1.066-2.133-8.533-2.133-8.533s2.133-2.133,4.267-1.067c0,0,7.467-6.4,9.6,6.4,0,0,5.333-3.2,8.533,2.133C140.763,296.7,140.763,300.962,140.763,300.962Z"/>
        <path id="Path_123" data-name="Path 123" class="cls-2" d="M178.1,319.1h0Z"/>
      </g>
      <path id="Path_124" data-name="Path 124" class="cls-12" d="M115.163,191.1H125.83l56.533,125.867s-3.2,3.2-4.267,2.133L123.7,194.3l-5.333-3.2Z"/>
      <path id="Path_125" data-name="Path 125" class="cls-16" d="M49.03,188.962s1.067-4.267,3.2-4.267,72.533,6.4,72.533,6.4-3.2,1.067-3.2,3.2Z"/>
      <path id="Path_126" data-name="Path 126" class="cls-4" d="M223.963,325.5,212.23,354.3l-17.067-8.533c-4.267-3.2-11.733-4.267-17.067-5.333s-22.4-1.067-26.667-4.267A3.3,3.3,0,0,0,149.3,335.1s-3.2,1.067-5.333-1.067-9.6-11.733-9.6-11.733a50.322,50.322,0,0,1-5.333-2.133,3.763,3.763,0,0,1-4.267-1.067c-3.2-2.133-9.6-8.533-10.667-10.667v-4.266l-2.133-7.467s3.2-3.2,5.333,0a46.207,46.207,0,0,1-1.067-5.333c0-1.066-2.133-8.533-2.133-8.533s2.133-2.133,4.267-1.067c0,0,7.467-6.4,9.6,6.4,0,0,5.333-3.2,8.533,2.133a22.928,22.928,0,0,1,3.2,10.667s5.333,9.6,5.333,10.667c0,0,5.333,3.2,7.467,4.267s7.467,3.2,7.467,3.2l3.2-3.2h0l8.533,2.133,4.267,1.067H178.1c2.133,0,17.067,0,35.2,1.067Z"/>
      <g id="Group_71" data-name="Group 71">
        <path id="Path_127" data-name="Path 127" class="cls-13" d="M129.03,288.162s1.067,3.2,2.133,7.467,2.133,9.6,3.2,14.933l1.067,4.267c0,1.067,1.067,2.133,2.133,3.2,2.133,2.133,3.2,4.267,4.267,5.333A38.439,38.439,0,0,0,146.1,328.7l-5.333-5.333-5.333-5.333a5.541,5.541,0,0,1-2.133-4.267l-1.067-4.267c-1.067-5.333-2.133-11.733-2.133-16A14.257,14.257,0,0,1,129.03,288.162Z"/>
        <path id="Path_128" data-name="Path 128" class="cls-13" d="M134.363,322.3l-6.4-6.4-3.2-3.2a8.061,8.061,0,0,1-1.067-4.267c-1.067-3.2-1.067-6.4-2.133-8.533l-1.067-4.267v-4.266h0c0-2.133-1.067-5.333-1.067-7.467a19.765,19.765,0,0,1,2.133,7.467h0v4.266l1.067,4.267c1.067,3.2,1.067,6.4,2.133,8.533,0,1.067,0,3.2,1.067,4.267s1.067,2.133,2.133,3.2C130.1,316.962,132.23,320.162,134.363,322.3Z"/>
        <path id="Path_129" data-name="Path 129" class="cls-4" d="M129.03,319.1a6.609,6.609,0,0,1-4.267-2.133c-1.067-1.067-2.133-1.067-4.267-3.2l-1.067-1.067v-1.067l-1.067-2.133V296.7a11.029,11.029,0,0,1,1.067,4.267c0,1.067,0,1.067,1.067,2.133,0,1.067,1.067,1.067,1.067,2.133s1.067,3.2,1.067,5.333L123.7,312.7c0,1.067,0,1.067,1.067,2.133l3.2,3.2S129.03,319.1,129.03,319.1Z"/>
        <path id="Path_130" data-name="Path 130" class="cls-13" d="M152.5,315.9c-2.133-1.067-6.4-3.2-6.4-4.267,1.067,4.267,10.667,13.867,13.867,14.933,4.267,1.067,3.2,1.067,5.333,1.067a4.672,4.672,0,0,1,3.2,1.067l-1.067-1.067c1.067,0,6.4,1.067,6.4,1.067-2.133,0-5.333-2.133-6.4-2.133s-5.333,0-6.4-2.133,1.067-6.4,1.067-6.4S154.63,316.962,152.5,315.9Z"/>
      </g>
      <path id="Path_131" data-name="Path 131" class="cls-20" d="M174.9,450.3l38.4,40.533s25.6-16,28.8-22.4c0,0,24.533-6.4,26.667-22.4,0,0,28.8,40.533,84.267,41.6s80-4.267,88.533-21.333a240.984,240.984,0,0,1,16-27.733S443.7,408.7,418.1,393.763,358.364,383.1,358.364,383.1s-14.933,2.133-35.2-3.2-33.067-14.933-53.333-20.267-37.333-3.2-49.067,8.533-16,26.667-16,34.133C202.63,409.762,190.9,438.562,174.9,450.3Z"/>
      <path id="Path_132" data-name="Path 132" class="cls-3" d="M273.03,416.162c0,3.2-2.133,6.4-3.2,9.6-1.067,2.133-2.133,3.2-3.2,5.333l-3.2,3.2a13.227,13.227,0,0,0-3.2,2.133v1.067c1.067,1.067,3.2,2.133,4.267,3.2,2.133,1.067,3.2,3.2,4.267,4.267s1.067,1.067,1.067,2.133l-1.067-1.067a14.723,14.723,0,0,0-4.267-3.2,52,52,0,0,0-7.467-3.2c-3.2-1.067-6.4-2.133-8.533-4.267-5.333-3.2-10.667-8.533-12.8-12.8-1.067-2.133-2.133-4.267-2.133-5.333v0c0,1.067,1.067,3.2,2.133,5.333s3.2,4.267,5.333,6.4a32.383,32.383,0,0,0,7.467,5.333,31.956,31.956,0,0,0,8.533,4.267c1.067,0,1.067,1.067,2.133,1.067,0-1.067-1.067-1.067-2.133-2.133-2.133-2.133-4.267-6.4-5.333-10.667s-2.133-8.533-2.133-11.733v0c0,1.067,1.067,3.2,1.067,5.333,1.067,2.133,1.067,4.267,2.133,6.4,1.067,4.267,3.2,7.467,5.333,10.667a3.918,3.918,0,0,1,1.067,3.2l3.2-3.2c2.133-2.133,3.2-5.333,5.333-8.533,1.067-3.2,3.2-6.4,4.267-9.6a10.627,10.627,0,0,0,1.067-4.267S273.03,412.962,273.03,416.162Z"/>
      <path id="Path_133" data-name="Path 133" class="cls-15" d="M194.1,462.029l-9.6-2.133s-11.733,4.267-22.4,1.067c-9.6-2.133-10.667-8.533-30.933-11.733S72.5,460.963,71.431,464.163,66.1,482.3,75.7,490.83s52.267,25.6,75.733,20.267,34.133-7.467,37.333-8.533a28.139,28.139,0,0,1,7.467-1.067Z"/>
      <path id="Path_134" data-name="Path 134" class="cls-18" d="M184.5,459.9s11.733,27.733,5.333,42.667c0,0,27.733,1.067,35.2-9.6s5.333-27.733-4.267-33.067S184.5,459.9,184.5,459.9Z"/>
    </g>
  </g>
</svg>
