<svg xmlns="http://www.w3.org/2000/svg" viewBox="7442 -340 50 50">
  <defs>
    <style>
      .cls-1 {
        fill: #76ffe5;
      }

      .cls-2 {
        fill: #0dbfba;
      }

      .cls-3 {
        fill: #bbfff2;
      }

      .cls-4 {
        fill: #1bceb8;
      }

      .cls-5 {
        fill: #e1fff9;
      }

      .cls-6 {
        fill: #26dbc0;
      }

      .cls-7 {
        fill: #f3fffd;
      }

      .cls-8 {
        fill: #2ee5c6;
      }

      .cls-9 {
        fill: #11aeba;
      }

      .cls-10 {
        fill: #3bedcb;
      }

      .cls-11 {
        fill: #0fb8bc;
      }

      .cls-12 {
        fill: #57f7d8;
      }
    </style>
  </defs>
  <g id="loading_1_" data-name="loading (1)" transform="translate(7442 -340)">
    <path id="Path_198" data-name="Path 198" class="cls-1" d="M226.419,9.274A2.376,2.376,0,0,1,224,6.855V2.419a2.419,2.419,0,0,1,4.839,0V6.855A2.426,2.426,0,0,1,226.419,9.274Z" transform="translate(-201.419)"/>
    <path id="Path_199" data-name="Path 199" class="cls-2" d="M226.419,413.274A2.376,2.376,0,0,1,224,410.855v-4.435a2.419,2.419,0,1,1,4.839,0v4.435A2.376,2.376,0,0,1,226.419,413.274Z" transform="translate(-201.419 -363.274)"/>
    <path id="Path_200" data-name="Path 200" class="cls-3" d="M116.728,39.16a2.43,2.43,0,0,1-2.1-1.21l-2.177-3.79a2.421,2.421,0,1,1,4.194-2.419l2.177,3.79a2.469,2.469,0,0,1-.887,3.306A2.99,2.99,0,0,1,116.728,39.16Z" transform="translate(-100.841 -27.466)"/>
    <path id="Path_201" data-name="Path 201" class="cls-4" d="M319.128,388.76a2.43,2.43,0,0,1-2.1-1.21l-2.177-3.79a2.421,2.421,0,1,1,4.194-2.419l2.177,3.79a2.469,2.469,0,0,1-.887,3.306A2.276,2.276,0,0,1,319.128,388.76Z" transform="translate(-282.837 -341.824)"/>
    <path id="Path_202" data-name="Path 202" class="cls-5" d="M36.741,119.147a2.276,2.276,0,0,1-1.21-.323l-3.79-2.177a2.421,2.421,0,0,1,2.419-4.194l3.79,2.177a2.469,2.469,0,0,1,.887,3.306A2.43,2.43,0,0,1,36.741,119.147Z" transform="translate(-27.466 -100.841)"/>
    <path id="Path_203" data-name="Path 203" class="cls-6" d="M386.421,321.547a2.276,2.276,0,0,1-1.21-.323l-3.871-2.177a2.421,2.421,0,1,1,2.419-4.194l3.79,2.177a2.469,2.469,0,0,1,.887,3.306A2.217,2.217,0,0,1,386.421,321.547Z" transform="translate(-341.824 -282.837)"/>
    <path id="Path_204" data-name="Path 204" class="cls-7" d="M6.855,228.839H2.419a2.419,2.419,0,0,1,0-4.839H6.855a2.376,2.376,0,0,1,2.419,2.419A2.426,2.426,0,0,1,6.855,228.839Z" transform="translate(0 -201.419)"/>
    <path id="Path_205" data-name="Path 205" class="cls-8" d="M410.855,228.839h-4.435a2.419,2.419,0,1,1,0-4.839h4.435a2.419,2.419,0,0,1,0,4.839Z" transform="translate(-363.274 -201.419)"/>
    <path id="Path_206" data-name="Path 206" class="cls-9" d="M32.15,321.547a2.43,2.43,0,0,1-2.1-1.21,2.469,2.469,0,0,1,.887-3.306l3.79-2.177a2.421,2.421,0,0,1,2.419,4.194l-3.79,2.177A1.944,1.944,0,0,1,32.15,321.547Z" transform="translate(-26.747 -282.837)"/>
    <path id="Path_207" data-name="Path 207" class="cls-10" d="M382.55,119.147a2.43,2.43,0,0,1-2.1-1.21,2.469,2.469,0,0,1,.887-3.306l3.79-2.177a2.421,2.421,0,1,1,2.419,4.194l-3.79,2.177A2.276,2.276,0,0,1,382.55,119.147Z" transform="translate(-341.824 -100.841)"/>
    <path id="Path_208" data-name="Path 208" class="cls-11" d="M114.55,388.76a2.276,2.276,0,0,1-1.21-.323,2.469,2.469,0,0,1-.887-3.306l2.177-3.79a2.421,2.421,0,0,1,4.194,2.419l-2.177,3.79A2.43,2.43,0,0,1,114.55,388.76Z" transform="translate(-100.841 -341.824)"/>
    <path id="Path_209" data-name="Path 209" class="cls-12" d="M316.95,39.16a2.276,2.276,0,0,1-1.21-.323,2.469,2.469,0,0,1-.887-3.306l2.177-3.79a2.421,2.421,0,1,1,4.194,2.419l-2.177,3.79A2.62,2.62,0,0,1,316.95,39.16Z" transform="translate(-282.837 -27.466)"/>
  </g>
</svg>
