<svg xmlns="http://www.w3.org/2000/svg" viewBox="13145 1641 36.224 48.01">
  <defs>
    <style>
      .cls-1 {
        fill: #2f2f2f;
      }
    </style>
  </defs>
  <g id="locked-padlock" transform="translate(13102.715 1641)">
    <g id="Group_236" data-name="Group 236" transform="translate(42.285)">
      <path id="Path_280" data-name="Path 280" class="cls-1" d="M76.767,16.374h-3.42V9.29A9.3,9.3,0,0,0,64.057,0h-7.32a9.3,9.3,0,0,0-9.29,9.29v7.084h-3.42a1.742,1.742,0,0,0-1.742,1.742V35.132A12.893,12.893,0,0,0,55.163,48.01H65.631A12.893,12.893,0,0,0,78.509,35.132V18.116A1.742,1.742,0,0,0,76.767,16.374ZM50.931,9.29a5.812,5.812,0,0,1,5.806-5.806h7.321A5.812,5.812,0,0,1,69.863,9.29v7.084H50.931ZM75.025,35.132a9.4,9.4,0,0,1-9.394,9.394H55.163a9.4,9.4,0,0,1-9.394-9.394V19.858H75.025Z" transform="translate(-42.285)"/>
      <path id="Path_281" data-name="Path 281" d="M157.7,230.227a1.742,1.742,0,1,0,3.484,0v-4.974a1.74,1.74,0,0,0-1.411-2.761h-.662a1.74,1.74,0,0,0-1.411,2.761Z" transform="translate(-141.333 -191.485)"/>
    </g>
  </g>
</svg>
