<svg xmlns="http://www.w3.org/2000/svg" viewBox="11275 1550 20 17.284">
  <defs>
    <style>
      .cls-1 {
        fill: #fff;
      }
    </style>
  </defs>
  <g id="refresh" transform="translate(11275 1516.733)">
    <path id="Path_267" data-name="Path 267" class="cls-1" d="M11.358,33.267A8.65,8.65,0,0,0,2.72,41.909v.029L1.01,39.362a.551.551,0,1,0-.918.608l2.482,3.735a.553.553,0,0,0,.392.241.4.4,0,0,0,.069,0,.54.54,0,0,0,.367-.143L6.851,40.7a.552.552,0,0,0-.739-.821l-2.29,2.07v-.041A7.547,7.547,0,1,1,6.035,47.24a.551.551,0,0,0-.78.78,8.64,8.64,0,1,0,6.1-14.753Z"/>
  </g>
</svg>
