<svg xmlns="http://www.w3.org/2000/svg" viewBox="13144 1790 40 47.261">
  <g id="Group_238" data-name="Group 238" transform="translate(13144 1790)">
    <path id="Path_282" data-name="Path 282" d="M6.576,47.261h21.5a1.4,1.4,0,1,0,0-2.808H8.021c.632-10.531,8.32-19.141,10.543-21.34a12.076,12.076,0,0,0,10.694.035,38.533,38.533,0,0,1,6.778,8.639,1.405,1.405,0,0,0,2.438-1.4,41.306,41.306,0,0,0-6.772-8.8,12.181,12.181,0,1,0-15.546-.09C13.116,24.581,5.171,33.825,5.171,45.816A1.441,1.441,0,0,0,6.576,47.261ZM14.61,12.179a9.37,9.37,0,1,1,9.37,9.371A9.381,9.381,0,0,1,14.61,12.179Z" transform="translate(-5.171)"/>
    <path id="Path_283" data-name="Path 283" d="M45.481,48.137A1.4,1.4,0,1,0,43.5,50.122l3.972,3.972L43,58.562a1.4,1.4,0,1,0,1.986,1.986l4.468-4.467,4.468,4.467a1.4,1.4,0,0,0,1.986-1.986l-4.468-4.467,4.468-4.469a1.4,1.4,0,0,0-1.986-1.986l-4.468,4.469Z" transform="translate(-16.318 -14.07)"/>
  </g>
</svg>
