<svg xmlns="http://www.w3.org/2000/svg" viewBox="11275 1629 20 20">
  <defs>
    <style>
      .cls-1 {
        fill: #eb9139;
      }
    </style>
  </defs>
  <g id="team_1_" data-name="team (1)" transform="translate(11275 1629)">
    <g id="Group_210" data-name="Group 210" transform="translate(0 0)">
      <path id="Path_277" data-name="Path 277" class="cls-1" d="M20,11.541a2.892,2.892,0,0,0-1.613-2.6V3.871a3.871,3.871,0,0,0-7.742,0v.381a3.91,3.91,0,0,0-1.259-.011l-.068.014a2.211,2.211,0,0,0,.037-.384V2.581a.969.969,0,0,0-.9-.965A3.546,3.546,0,0,0,1.935,3.548v.323A2.261,2.261,0,0,0,2.9,5.716v.018a2.576,2.576,0,0,0,.968,2.011v.691l-1.445.241A2.894,2.894,0,0,0,0,11.541v2.653H5.706a2.886,2.886,0,0,0-1.835,2.7V20H16.129V16.892a2.886,2.886,0,0,0-1.835-2.7H20Zm-8.71-7.67a3.226,3.226,0,1,1,6.452,0V8.713c-.056-.013-.111-.026-.168-.036l-1.445-.241V7.746A2.576,2.576,0,0,0,17.1,5.735l0-2.044-.457.211a5.651,5.651,0,0,1-2.121.292A5.682,5.682,0,0,1,12.4,3.9l-.462-.222V4.716a3.883,3.883,0,0,0-.645-.295Zm2.07,2.278a3.858,3.858,0,0,0-.78-.964v-.55a8.006,8.006,0,0,0,1.935.2,8.006,8.006,0,0,0,1.935-.2v1.1A1.937,1.937,0,0,1,14.516,7.67a1.906,1.906,0,0,1-.323-.03V7.165A1.037,1.037,0,0,0,13.361,6.149Zm.552,3.6a3.535,3.535,0,0,0,.281-1.364v-.1a2.468,2.468,0,0,0,1.29-.166v.532l-.968,2.9Zm.026,2.12-.884-.884a3.511,3.511,0,0,0,.428-.483Zm2.086-2.8.51.085.211,1.059L15.093,11.87ZM9.485,4.879A3.236,3.236,0,0,1,12.87,6.6l.09.176h.2a.391.391,0,0,1,.391.39V8.387a2.916,2.916,0,0,1-.645,1.82l0-1.979-.446.184A7.256,7.256,0,0,1,10,8.71a7.275,7.275,0,0,1-2.454-.3L7.1,8.221V9.458a3.217,3.217,0,0,1,2.388-4.58ZM6.4,9.457A3.861,3.861,0,0,0,6.656,10l-.569-.342Zm-.9-.175-.979-.734V8.125a2.52,2.52,0,0,0,1.623.1,3.888,3.888,0,0,0,.067.582Zm1.315,1.567.316.19A2.9,2.9,0,0,0,8.065,12.8v.745H6.736l-.273-2.179Zm1.5,3.371,1.129.9-.951.571L7.61,14.382Zm.4-.5v-.474a2.87,2.87,0,0,0,2.581,0v.474L10,14.748Zm2.983.5.7.161-.875,1.313-.951-.571ZM10,12.9a2.261,2.261,0,0,1-2.258-2.258V9.14A10.063,10.063,0,0,0,10,9.355a10.063,10.063,0,0,0,2.258-.215v1.505A2.261,2.261,0,0,1,10,12.9ZM2.9,3.681V4.834a1.61,1.61,0,0,1-.323-.963V3.548A2.9,2.9,0,0,1,8,2.1l.093.161h.3a.323.323,0,0,1,.323.323v1.29a1.585,1.585,0,0,1-.116.589,3.83,3.83,0,0,0-.53.259V3.691L7.605,3.9a5.671,5.671,0,0,1-2.121.292A5.682,5.682,0,0,1,3.365,3.9Zm.645,2.053v-1.1a8.006,8.006,0,0,0,1.935.2,8.006,8.006,0,0,0,1.935-.2v.553A3.881,3.881,0,0,0,6.166,7.542a1.908,1.908,0,0,1-.682.128A1.938,1.938,0,0,1,3.548,5.735ZM4.11,9.05l.8.6-.925.555L3.365,9.175Zm.121,4.5H2.581v-.968H1.935v.968H.645V11.541A2.251,2.251,0,0,1,2.532,9.314l.149-.025,1.079,1.8.4-.238.346.52Zm.65,0,.292-2.337-.463-.694.773-.464.773.464-.463.694.292,2.337Zm3.862,5.806H6.452V17.742H5.806v1.613H4.516V16.892a2.247,2.247,0,0,1,1.75-2.2l.671-.155,1.352,2.027.384-.23.348.522Zm1.864,0H9.393l.3-2.662L9.227,16,10,15.537l.773.464-.461.692Zm4.876-2.463v2.463h-1.29V17.742h-.645v1.613H11.256l-.278-2.5.348-.522.384.23,1.352-2.027.671.155A2.247,2.247,0,0,1,15.484,16.892Zm3.871-3.343h-1.29v-.968h-.645v.968H11.935V12.8a2.911,2.911,0,0,0,.808-1.216l1.773,1.773,2.931-2.931-.232-1.157.253.042a2.251,2.251,0,0,1,1.887,2.227Z" transform="translate(0 0)"/>
    </g>
  </g>
</svg>
