<svg xmlns="http://www.w3.org/2000/svg" viewBox="3849 305 428 269.565">
  <defs>
    <style>
      .cls-1 {
        fill: #d29b6e;
      }

      .cls-2 {
        fill: #59d8ff;
      }

      .cls-3 {
        fill: #00c3f0;
      }

      .cls-4 {
        fill: #f0c087;
      }

      .cls-5 {
        fill: #e6af78;
      }

      .cls-6 {
        fill: #694b4b;
      }

      .cls-7 {
        fill: #5a4146;
      }

      .cls-8 {
        fill: #d5dced;
      }

      .cls-9 {
        fill: #afb9d2;
      }

      .cls-10 {
        fill: #fff;
      }

      .cls-11 {
        fill: #f5dcb4;
      }

      .cls-12 {
        fill: #5c414b;
      }

      .cls-13 {
        fill: #503441;
      }

      .cls-14 {
        fill: #c70541;
      }

      .cls-15 {
        fill: #c39772;
      }

      .cls-16 {
        fill: #ff105a;
      }

      .cls-17 {
        fill: #dbd9dc;
      }

      .cls-18 {
        fill: #ffdc64;
      }

      .cls-19 {
        fill: #fff082;
      }
    </style>
  </defs>
  <g id="Group_287" data-name="Group 287" transform="translate(3726 -939)">
    <g id="student" transform="translate(123 1237.345)">
      <path id="Path_44" data-name="Path 44" class="cls-1" d="M71.311,220.69V240.6a6.9,6.9,0,0,1-4.869,6.592l-30.223,9.3a13.794,13.794,0,0,0-9.736,13.183v50.158a17.241,17.241,0,0,0,17.241,17.241h99.138V220.69Z" transform="translate(-13.552 -103.897)"/>
      <path id="Path_45" data-name="Path 45" class="cls-2" d="M95.448,276.931A47.448,47.448,0,0,1,55.59,255.044L36.219,261a13.793,13.793,0,0,0-9.736,13.183v50.158a17.241,17.241,0,0,0,17.241,17.241h99.138V229.517A47.553,47.553,0,0,1,95.448,276.931Z" transform="translate(-13.552 -108.414)"/>
      <g id="Group_60" data-name="Group 60" transform="translate(12.931 121.103)">
        <path id="Path_46" data-name="Path 46" class="cls-3" d="M164.421,229.517A47.35,47.35,0,0,1,77.15,255.043l-8.537,2.626a55.933,55.933,0,0,0,95.808,1.614Z" transform="translate(-48.042 -229.517)"/>
        <path id="Path_47" data-name="Path 47" class="cls-3" d="M99.759,358.716h-43.1a4.311,4.311,0,0,1-4.311-4.31V333.9a12.936,12.936,0,0,0-3.787-9.144L28.91,305.108a13.74,13.74,0,0,0-2.427,7.76v50.158a17.241,17.241,0,0,0,17.241,17.241h68.965v-8.621A12.93,12.93,0,0,0,99.759,358.716Z" transform="translate(-26.483 -268.198)"/>
      </g>
      <path id="Path_48" data-name="Path 48" class="cls-4" d="M159.19,127.276h-.64L157.035,97.1H88.608v30.172H85.914a6.466,6.466,0,0,0-6.465,6.465v8.621a6.466,6.466,0,0,0,6.465,6.465H90l.7,4.376a13.8,13.8,0,0,0,4.79,8.417l13.84,11.533a10.347,10.347,0,0,0,6.623,2.4h13.2a10.349,10.349,0,0,0,6.623-2.4l13.84-11.533a13.8,13.8,0,0,0,4.79-8.417l.7-4.376h4.085a6.466,6.466,0,0,0,6.465-6.465v-8.621A6.465,6.465,0,0,0,159.19,127.276Z" transform="translate(-40.656 -40.656)"/>
      <path id="Path_49" data-name="Path 49" class="cls-5" d="M157.035,97.1H88.608v30.172H85.914a6.465,6.465,0,0,0-6.465,6.465v8.621a6.465,6.465,0,0,0,6.465,6.465H90l.7,4.376a13.794,13.794,0,0,0,4.79,8.417l13.84,11.533a10.346,10.346,0,0,0,6.622,2.4h5.45l-6.145-18.433a25.86,25.86,0,0,1-1.327-8.178V122.964a4.311,4.311,0,0,1,4.311-4.311h0s4.311,0,6.035-2.071a18.975,18.975,0,0,0,17.241,0,18.914,18.914,0,0,0,8.621,2.071,11.226,11.226,0,0,0,1.276-.077l6.7.008Z" transform="translate(-40.656 -40.655)"/>
      <path id="Path_50" data-name="Path 50" class="cls-6" d="M168.855,55.586A10.318,10.318,0,0,0,161.2,45.64a10.313,10.313,0,0,0-9.587-14.192c-.21,0-.407.05-.614.062a10.312,10.312,0,0,0-9.73-6.958,9.851,9.851,0,0,0-3.159.542,11.825,11.825,0,0,0-11.562-3.677,13.667,13.667,0,0,0-18.833,0,11.886,11.886,0,0,0-11.1,3.147c-.06,0-.116-.012-.177-.012a10.313,10.313,0,0,0-9.73,6.958c-.208-.012-.4-.062-.614-.062A10.314,10.314,0,0,0,76.508,45.64,10.26,10.26,0,0,0,71.54,62.483a10.215,10.215,0,0,0,2.517,15.8,8.606,8.606,0,0,0,8.592,8.336h3.769a3.449,3.449,0,0,0,3.4-2.881L92.225,69.3c.259.02.505.078.769.078a10.325,10.325,0,0,0,8.621-4.64,10.328,10.328,0,0,0,17.241,0,10.328,10.328,0,0,0,17.241,0,10.326,10.326,0,0,0,8.621,4.64c.263,0,.51-.058.769-.078l2.406,14.437a3.449,3.449,0,0,0,3.4,2.881h4.63A8.621,8.621,0,0,0,164.545,78c0-.089-.024-.172-.026-.261a10.214,10.214,0,0,0,1.652-15.256A10.27,10.27,0,0,0,168.855,55.586Z" transform="translate(-35.234 0)"/>
      <path id="Path_51" data-name="Path 51" class="cls-7" d="M114.607,61.868a10.254,10.254,0,0,1-4.274-16.627A10.26,10.26,0,0,1,115.3,28.4a10.183,10.183,0,0,1,1.92-10.734c-.031,0-.06-.009-.091-.009a13.711,13.711,0,0,0-9.416,3.762,11.886,11.886,0,0,0-11.1,3.147c-.06,0-.116-.012-.177-.012a10.313,10.313,0,0,0-9.73,6.958c-.208-.012-.4-.062-.614-.062A10.314,10.314,0,0,0,76.51,45.64a10.26,10.26,0,0,0-4.97,16.843,10.215,10.215,0,0,0,2.517,15.8,8.606,8.606,0,0,0,8.592,8.336h3.769a3.449,3.449,0,0,0,3.4-2.881L92.226,69.3c.259.02.505.078.769.078a10.325,10.325,0,0,0,8.621-4.64,10.326,10.326,0,0,0,8.621,4.64,10.2,10.2,0,0,0,6.271-2.212,6.729,6.729,0,0,1-1.96-4.685C114.545,62.272,114.588,62.074,114.607,61.868Z" transform="translate(-35.235 0)"/>
      <path id="Path_52" data-name="Path 52" class="cls-5" d="M150.069,414.9H163a12.931,12.931,0,0,1,12.931,12.931v8.621H150.069Z" transform="translate(-76.793 -203.277)"/>
      <path id="Path_53" data-name="Path 53" class="cls-8" d="M336.448,288.827H207.138A12.931,12.931,0,0,1,194.207,275.9V198.31a12.931,12.931,0,0,1,12.931-12.931h129.31A12.931,12.931,0,0,1,349.38,198.31V275.9A12.931,12.931,0,0,1,336.448,288.827Z" transform="translate(-99.38 -85.828)"/>
      <path id="Path_54" data-name="Path 54" class="cls-9" d="M351.862,391.276,344.238,334.1a8.62,8.62,0,0,0-8.545-7.481H316.305a8.621,8.621,0,0,0-8.545,7.481l-7.623,57.174V399.9h51.724v-8.621Z" transform="translate(-153.586 -158.104)"/>
      <ellipse id="Ellipse_3" data-name="Ellipse 3" class="cls-10" cx="8.621" cy="8.621" rx="8.621" ry="8.621" transform="translate(163.793 134.034)"/>
      <path id="Path_55" data-name="Path 55" class="cls-11" d="M245.689,476.276H4.311A4.311,4.311,0,0,1,0,471.965v-8.621a4.311,4.311,0,0,1,4.311-4.311H245.689A4.311,4.311,0,0,1,250,463.345v8.621A4.312,4.312,0,0,1,245.689,476.276Z" transform="translate(0 -225.862)"/>
    </g>
    <g id="employee" transform="translate(384.936 1329)">
      <path id="Path_32" data-name="Path 32" class="cls-12" d="M194.57,36.956v-7.9c0-15.217-11.694-28.311-26.895-29.027A28.262,28.262,0,0,0,138.048,28.26v8.7c0,14.63-2.431,23.182-3.658,26.566a2.148,2.148,0,0,0,1.02,2.629c4.332,2.3,16.135,8.2,26.551,9.935h8.7c10.416-1.736,22.219-7.631,26.551-9.935a2.148,2.148,0,0,0,1.02-2.629C197,60.138,194.57,51.586,194.57,36.956Z" transform="translate(-50.245 0)"/>
      <path id="Path_33" data-name="Path 33" class="cls-13" d="M138.051,46.668v8.7c0,14.629-2.431,23.182-3.657,26.566a2.156,2.156,0,0,0,1.031,2.635c4.041,2.148,14.538,7.393,24.365,9.507V51.015l-4.348-4.348c-7.232-7.232-7.721-16.365-7.243-21.684A28.193,28.193,0,0,0,138.051,46.668Z" transform="translate(-50.248 -18.407)"/>
      <rect id="Rectangle_9" data-name="Rectangle 9" class="cls-5" width="21.739" height="28.262" transform="translate(105.194 60.87)"/>
      <path id="Path_34" data-name="Path 34" class="cls-14" d="M178.534,294.179l-11.574-5.147-15.466,6.522-2.539,3.808a2.174,2.174,0,0,1-3.618,0l-2.539-3.808-15.229-6.522L116,294.179a13.043,13.043,0,0,0-7.738,12.279l1.142,41.27h75.73l1.142-41.27A13.043,13.043,0,0,0,178.534,294.179Z" transform="translate(-31.083 -212.945)"/>
      <g id="Group_58" data-name="Group 58" transform="translate(77.17 84.174)">
        <path id="Path_35" data-name="Path 35" class="cls-14" d="M122.8,333.406l-10.921-13.651a13.013,13.013,0,0,0-3.62,9.338l1.142,41.27h13.4Z" transform="translate(-108.253 -319.755)"/>
        <path id="Path_36" data-name="Path 36" class="cls-14" d="M349.388,333.406l10.921-13.651a13.012,13.012,0,0,1,3.62,9.338l-1.142,41.27h-13.4V333.406Z" transform="translate(-285.91 -319.755)"/>
      </g>
      <path id="Path_37" data-name="Path 37" class="cls-1" d="M214.709,237.54a26,26,0,0,0,21.739,0v-6.315H214.709Z" transform="translate(-109.515 -170.356)"/>
      <path id="Path_38" data-name="Path 38" class="cls-4" d="M197.495,121.584a19.606,19.606,0,0,0,.924-5.441c.321-12.512-17.2-9.582-31.6-19.054a2.192,2.192,0,0,0-3.025.536,45.566,45.566,0,0,1-6.367,7.257,4.341,4.341,0,0,1-2.947,1.15h-1.568a4.25,4.25,0,0,0-.731.078,4.6,4.6,0,0,0-3.54,4.589v1.573A4.566,4.566,0,0,0,152,116.787a4.31,4.31,0,0,0,1.324.1,2.117,2.117,0,0,1,2.219,1.767,21.7,21.7,0,0,0,41.415,4.37C197.116,122.643,197.464,121.677,197.495,121.584Z" transform="translate(-60.84 -71.251)"/>
      <path id="Path_39" data-name="Path 39" class="cls-5" d="M163.861,117.07V99.887a45.651,45.651,0,0,1-6.432,7.337,4.341,4.341,0,0,1-2.947,1.15h-1.568a4.258,4.258,0,0,0-.729.077,4.6,4.6,0,0,0-3.541,4.586v1.575A4.566,4.566,0,0,0,152,119.128a4.3,4.3,0,0,0,1.325.1A2.117,2.117,0,0,1,155.543,121a21.66,21.66,0,0,0,25.671,17.369A21.747,21.747,0,0,1,163.861,117.07Z" transform="translate(-60.84 -73.592)"/>
      <path id="Path_40" data-name="Path 40" class="cls-15" d="M163.89,499.831H68.238a2.174,2.174,0,1,1,0-4.348H163.89a2.174,2.174,0,1,1,0,4.348Z" transform="translate(0 -365.049)"/>
      <g id="Group_59" data-name="Group 59" transform="translate(96.499 71.53)">
        <path id="Path_41" data-name="Path 41" class="cls-16" d="M185.868,284.662l-4.192-8.384,4.725-4.036a2.174,2.174,0,0,1,3.177.384l7.316,10.174-4.528,3.4A4.348,4.348,0,0,1,185.868,284.662Z" transform="translate(-181.676 -271.722)"/>
        <path id="Path_42" data-name="Path 42" class="cls-16" d="M283.541,284.662l4.192-8.384-4.725-4.036a2.174,2.174,0,0,0-3.177.384L272.515,282.8l4.528,3.4A4.348,4.348,0,0,0,283.541,284.662Z" transform="translate(-248.602 -271.722)"/>
      </g>
      <path id="Path_43" data-name="Path 43" class="cls-17" d="M195.718,392.052H147.4a4.348,4.348,0,0,1-4.34-4.092L141.393,359.7a4.348,4.348,0,0,1,4.34-4.6H197.38a4.348,4.348,0,0,1,4.34,4.6l-1.662,28.261A4.348,4.348,0,0,1,195.718,392.052Z" transform="translate(-55.493 -261.618)"/>
      <circle id="Ellipse_2" data-name="Ellipse 2" class="cls-10" cx="5.435" cy="5.435" r="5.435" transform="translate(110.629 107.608)"/>
    </g>
    <g id="employee-2" data-name="employee" transform="translate(230.936 1244)">
      <path id="Path_32-2" data-name="Path 32" class="cls-12" d="M254.878,73.912V58.117c0-30.435-23.388-56.622-53.789-58.053a56.524,56.524,0,0,0-59.254,56.457V73.912c0,29.26-4.862,46.365-7.315,53.132a4.3,4.3,0,0,0,2.04,5.258c8.664,4.609,32.269,16.4,53.1,19.871h17.391c20.832-3.472,44.438-15.263,53.1-19.871a4.3,4.3,0,0,0,2.04-5.258C259.74,120.277,254.878,103.172,254.878,73.912Z" transform="translate(-32.292)"/>
      <path id="Path_33-2" data-name="Path 33" class="cls-13" d="M141.836,68.351V85.743c0,29.259-4.862,46.363-7.315,53.131a4.311,4.311,0,0,0,2.062,5.269c8.083,4.3,29.076,14.786,48.73,19.014V77.047l-8.7-8.7c-14.463-14.463-15.443-32.73-14.486-43.367A56.387,56.387,0,0,0,141.836,68.351Z" transform="translate(-32.294 -11.83)"/>
      <rect id="Rectangle_9-2" data-name="Rectangle 9" class="cls-5" width="43.478" height="56.524" transform="translate(144.325 121.741)"/>
      <path id="Path_34-2" data-name="Path 34" class="cls-18" d="M248.814,299.326l-23.147-10.293-30.931,13.043-5.078,7.617a4.348,4.348,0,0,1-7.235,0l-5.078-7.617-30.458-13.043L123.74,299.326a26.086,26.086,0,0,0-15.477,24.558l2.284,82.54H262.007l2.284-82.54A26.087,26.087,0,0,0,248.814,299.326Z" transform="translate(-19.977 -136.858)"/>
      <g id="Group_58-2" data-name="Group 58" transform="translate(88.276 168.349)">
        <path id="Path_35-2" data-name="Path 35" class="cls-19" d="M137.345,347.057l-21.842-27.3a26.025,26.025,0,0,0-7.24,18.676l2.284,82.54h26.8Z" transform="translate(-108.253 -319.755)"/>
        <path id="Path_36-2" data-name="Path 36" class="cls-19" d="M349.388,347.057l21.842-27.3a26.023,26.023,0,0,1,7.24,18.676l-2.284,82.54h-26.8V347.057Z" transform="translate(-222.432 -319.755)"/>
      </g>
      <path id="Path_37-2" data-name="Path 37" class="cls-1" d="M214.709,243.854a52,52,0,0,0,43.478,0V231.225H214.709Z" transform="translate(-70.384 -109.486)"/>
      <path id="Path_38-2" data-name="Path 38" class="cls-4" d="M246.347,146.459a39.213,39.213,0,0,0,1.848-10.881c.642-25.023-34.4-19.164-63.2-38.108a4.383,4.383,0,0,0-6.05,1.072,91.133,91.133,0,0,1-12.735,14.513,8.682,8.682,0,0,1-5.895,2.3h-3.128l-.007,0a8.5,8.5,0,0,0-1.462.155c-4.231.819-7.08,4.868-7.08,9.178v3.145a9.131,9.131,0,0,0,6.713,9.028,8.62,8.62,0,0,0,2.649.205,4.234,4.234,0,0,1,4.438,3.534,43.4,43.4,0,0,0,82.831,8.741C245.589,148.577,246.285,146.646,246.347,146.459Z" transform="translate(-39.102 -45.792)"/>
      <path id="Path_39-2" data-name="Path 39" class="cls-5" d="M179.078,134.253V99.887a91.3,91.3,0,0,1-12.863,14.674,8.682,8.682,0,0,1-5.895,2.3h-3.128l-.007,0a8.515,8.515,0,0,0-1.459.155c-4.231.818-7.083,4.863-7.083,9.173v3.151a9.132,9.132,0,0,0,6.713,9.028,8.606,8.606,0,0,0,2.649.205,4.234,4.234,0,0,1,4.438,3.534,43.32,43.32,0,0,0,51.343,34.738A43.5,43.5,0,0,1,179.078,134.253Z" transform="translate(-39.102 -47.297)"/>
      <path id="Path_40-2" data-name="Path 40" class="cls-15" d="M261.716,504.179H70.412a4.348,4.348,0,1,1,0-8.7h191.3a4.348,4.348,0,1,1,0,8.7Z" transform="translate(0 -234.614)"/>
      <g id="Group_59-2" data-name="Group 59" transform="translate(126.933 143.06)">
        <path id="Path_41-2" data-name="Path 41" class="cls-19" d="M190.06,297.6l-8.384-16.768,9.45-8.071a4.348,4.348,0,0,1,6.354.768l14.632,20.347-9.056,6.792A8.7,8.7,0,0,1,190.06,297.6Z" transform="translate(-181.676 -271.722)"/>
        <path id="Path_42-2" data-name="Path 42" class="cls-19" d="M294.566,297.6l8.384-16.768-9.449-8.071a4.348,4.348,0,0,0-6.354.768l-14.632,20.347,9.056,6.792A8.7,8.7,0,0,0,294.566,297.6Z" transform="translate(-224.689 -271.722)"/>
      </g>
      <path id="Path_43-2" data-name="Path 43" class="cls-17" d="M250.051,429.009H153.406a8.7,8.7,0,0,1-8.681-8.185L141.4,364.3a8.7,8.7,0,0,1,8.681-9.206H253.376a8.7,8.7,0,0,1,8.681,9.206l-3.325,56.522A8.7,8.7,0,0,1,250.051,429.009Z" transform="translate(-35.665 -168.14)"/>
      <circle id="Ellipse_2-2" data-name="Ellipse 2" class="cls-10" cx="10.869" cy="10.869" r="10.869" transform="translate(155.194 215.217)"/>
    </g>
  </g>
</svg>
