<svg xmlns="http://www.w3.org/2000/svg" viewBox="18084 2798 50.748 50.609">
  <defs>
    <style>
      .cls-1 {
        fill: #010002;
      }
    </style>
  </defs>
  <g id="thumb-up" transform="translate(18084 2797.93)">
    <path id="Path_289" data-name="Path 289" class="cls-1" d="M41.86,22.5l-9.288-1.043c-1.444-1.391-8.56-8.217-10.645-9.725C18.506,8.093,12.952,2.017,12.4.956A1.655,1.655,0,0,0,10.828.071,3.725,3.725,0,0,0,7.871,2.5C7.236,3.96,6.707,7.022,10.3,11.169c2.605,3.005,3.453,4.582,3.639,5.455a.908.908,0,0,0-.024.132c0,.179.02.358.028.537a.989.989,0,0,1-.247.41,3.665,3.665,0,0,0-.315.379,7.849,7.849,0,0,1-1.461.9,7.607,7.607,0,0,0-2.614,1.885,11.6,11.6,0,0,1-1.371.4c-2.78.716-8.557,2.2-7.882,8.449a3.863,3.863,0,0,0,1.637,2.952,4.061,4.061,0,0,0,.746.4c-.237.844-1.022,4.171.722,6.188a3.987,3.987,0,0,0,2.368,1.3c.122,1.554.592,4.275,2.38,5.519a3.577,3.577,0,0,0,2.076.637c.048,0,.1-.006.151-.008A6.448,6.448,0,0,0,13.2,50.2a5.1,5.1,0,0,0,2.174.474,8.08,8.08,0,0,0,3.68-1.022l.1-.056a7.83,7.83,0,0,0,.764-.586c1.493-.132,7.037-.88,13.882-6.345,3.164.02,6.812.214,7.418.494a1,1,0,0,0,1.537-.846V23.488A1,1,0,0,0,41.86,22.5ZM2.047,29.547c-.476-4.21,2.75-5.4,6.388-6.336,1.329-.342,2.131-.549,2.506-1.187a7.158,7.158,0,0,1,1.929-1.279,15.468,15.468,0,0,0,1.357-.793,17.734,17.734,0,0,0,3.886,8.677,9.863,9.863,0,0,0-1.854-.989,3.121,3.121,0,0,0-.1-1.538c-.458-1.328-1.8-2.135-3.975-2.4a.966.966,0,0,0-.252,0l-3.816.509A1,1,0,1,0,8.38,26.2l3.687-.492c1.221.164,2,.524,2.191,1.021.237.607-.28,1.541-.5,1.846-.556.276-2.828,1.172-4.85,1.934-3.808,1.448-5.431.958-6.059.538a1.85,1.85,0,0,1-.8-1.385C2.053,29.621,2.051,29.584,2.047,29.547ZM4.723,33.6a1.236,1.236,0,0,0,.014-.135,14.591,14.591,0,0,0,4.878-1.09c5.1-1.921,5.337-2.155,5.508-2.327a2.726,2.726,0,0,0,.208-.257c1.827.763,2.15,1.422,2.2,1.614.108.415-.326.939-.559,1.221l-.11.137-.007.009-.075.093a14.253,14.253,0,0,1-9.162,5.37,6.481,6.481,0,0,1-.9.085c-.016,0-.029-.009-.044-.01H6.656c-.009,0-.017.005-.026.005a2.151,2.151,0,0,1-1.7-.583C4.042,36.706,4.495,34.347,4.723,33.6Zm3.156,6.961c.036-.005.07-.007.107-.013A16.576,16.576,0,0,0,18.2,34.823c1.2.416,1.489.869,1.556,1.065.087.255.054.735-.6,1.577l-.091.119A19.708,19.708,0,0,1,11,44.152c-1.13.441-1.6.115-1.757.008C8.412,43.581,8.009,41.931,7.879,40.562ZM14.2,48.086a3.924,3.924,0,0,1-1.779-2,21.438,21.438,0,0,0,7.289-5.6,1.23,1.23,0,0,1,.9-.059,1.259,1.259,0,0,1,.34.85,7.161,7.161,0,0,1-3.03,6.324A4.289,4.289,0,0,1,14.2,48.086Zm26.552-7.043a57.52,57.52,0,0,0-7.3-.377,1.033,1.033,0,0,0-.633.224,28.262,28.262,0,0,1-10.858,5.754,8.7,8.7,0,0,0,1.331-5.515,3.483,3.483,0,0,0-1.4-2.659,2.753,2.753,0,0,0-.444-.207,3.6,3.6,0,0,0,.529-3.132A4.024,4.024,0,0,0,19.6,32.858a3.051,3.051,0,0,0,.2-2.045,3.189,3.189,0,0,0-.388-.876,12.387,12.387,0,0,0,6.407,2.948c1.261.189,1.8-1.738.531-1.929-6.7-1.006-9.979-7.049-10.386-13.3.359-1.518-.592-3.693-4.149-7.8-3-3.466-2.466-5.761-2.095-6.586A2.249,2.249,0,0,1,10.76,2.1c1.311,2.041,8.333,9.531,9.78,11.066a1.057,1.057,0,0,0,.156.135c1.608,1.121,7.724,6.915,10.733,9.822a.993.993,0,0,0,.583.274l8.737.982Zm10-16.288v17a2,2,0,0,1-2,2h-2a2,2,0,0,1-2-2v-17a2,2,0,0,1,2-2h2A2,2,0,0,1,50.749,24.755Z"/>
  </g>
</svg>
