<svg xmlns="http://www.w3.org/2000/svg" viewBox="366 1939 100 127.19">
  <defs>
    <style>
      .cls-1 {
        fill: #7a51cc;
      }

      .cls-2 {
        fill: #94d2d1;
      }
    </style>
  </defs>
  <g id="man-holding-the-vote-paper-on-the-box" transform="translate(347.047 1939)">
    <g id="Group_117" data-name="Group 117" transform="translate(18.953)">
      <path id="Path_167" data-name="Path 167" class="cls-1" d="M57.055,102.241l-1.023-7.914L54.18,95.1l.561,3.329c.151.891.339,1.8.58,2.7l-.033.015c-.634-.776-1.289-1.46-1.98-2.16l-2.468-2.5-1.91.794,6.088,5.807Z" transform="translate(-14.586 1.505)"/>
      <path id="Path_168" data-name="Path 168" class="cls-1" d="M67.833,97.046l1.749-.727L66.651,90.78l2.1-.875-.687-1.3-5.924,2.466.687,1.3,2.07-.86Z" transform="translate(-12.662 1.414)"/>
      <path id="Path_169" data-name="Path 169" class="cls-1" d="M57.086,79.7c-7.823,3.256-11.876,10.779-10.3,17.981l32.475-13.52C74.026,78.485,64.909,76.446,57.086,79.7Z" transform="translate(-14.948 1.247)"/>
      <path id="Path_170" data-name="Path 170" class="cls-2" d="M107.023,48.115H82.464V31.822A4.869,4.869,0,0,0,86.849,28.9c1.138-2.927,8.214-8.107,11.58-12.3v.017h8.885V0H98.43V1.53c-.584-.09-1.2-.183-1.686-.245A49.258,49.258,0,0,0,62.15,9.179C52.108,16.05,48.439,29.3,48.383,29.749a3.909,3.909,0,0,0,.55,2.518,4.157,4.157,0,0,0,2.432,5.6,5.463,5.463,0,0,0,4.079.041v10.21H30.883L18.953,69.326V127.19h100V69.326ZM100.275,1.638h5.193V14.98h-5.193ZM75.408,19.14c6.05.824,3.7,3.591,2.43,6.282H63.965C66.94,21.688,70.862,18.52,75.408,19.14ZM58.251,35.013a52.389,52.389,0,0,1,3.906-7.1H77.329a4.327,4.327,0,0,0,2.326,3.285V51.869h-21.4ZM51.41,53.873h4.035v.486H82.463v-.486H86.5V57.4H51.41Zm26.822,59.454c-10.9,4.536-23.927.365-29.044-9.3s-.412-21.218,10.486-25.758,23.928-.366,29.044,9.3S89.13,108.788,78.232,113.327Z" transform="translate(-18.953)"/>
      <path id="Path_171" data-name="Path 171" class="cls-1" d="M51.028,105.762a20.281,20.281,0,0,0,21.115,3.409c7.318-3.047,11.335-9.826,10.529-16.585Z" transform="translate(-14.281 1.478)"/>
      <path id="Path_172" data-name="Path 172" class="cls-1" d="M58.986,92.529a3.482,3.482,0,0,0-1.856,5.143A4.159,4.159,0,0,0,62.6,99.641a3.439,3.439,0,0,0,1.878-5.177A4.159,4.159,0,0,0,58.986,92.529Zm3.052,5.846c-1.165.487-2.374-.162-3.082-1.5s-.543-2.608.635-3.1c1.2-.5,2.422.277,3.072,1.5C63.365,96.609,63.216,97.883,62.038,98.375Z" transform="translate(-13.466 1.471)"/>
      <path id="Path_173" data-name="Path 173" class="cls-1" d="M76.662,93.044l-.67-1.269L72.824,93.1l-.859-1.621L74.8,90.293l-.666-1.259L71.3,90.216l-.752-1.42,3.007-1.253-.67-1.267-4.758,1.982,3.618,6.832Z" transform="translate(-11.79 1.377)"/>
    </g>
  </g>
</svg>
